# xmcd
#
# Track frame offsets:
#	150
#	11445
#	23745
#	34767
#	49480
#	60712
#	75070
#	89860
#	106640
#	118342
#	132025
#
# Disc length: 1944 seconds
#
# Revision: 1
# Processed by: cddbd v1.5.2PL0 Copyright (c) Steve Scherf et al.
# Submitted via: audiograbber 1.83.01
#
DISCID=8407960b
DTITLE=Donna Fargo - The Best Of - The Millennium Collection
DYEAR=1900
DGENRE=Oldies
TTITLE0=The Happiest Girl In The Whole USA
TTITLE1=Funny Face
TTITLE2=Superman
TTITLE3=You Were Always There
TTITLE4=Little Girl Gone
TTITLE5=I'll Try A Little Bit Harder
TTITLE6=You Can't Be A Beacon
TTITLE7=US Of A
TTITLE8=It Do Feel Good
TTITLE9=Whatever I Say
TTITLE10=Don't Be Angry
EXTD=
EXTT0=
EXTT1=
EXTT2=
EXTT3=
EXTT4=
EXTT5=
EXTT6=
EXTT7=
EXTT8=
EXTT9=
EXTT10=
PLAYORDER=
